<?xml version="1.0" encoding="utf-8"?>
<svg version="1.1" id="Layer_1" xmlns="http://www.w3.org/2000/svg" xmlns:xlink="http://www.w3.org/1999/xlink" x="0px" y="0px" viewBox="0 0 100 100">
<style type="text/css">.eyeHide0{fill:#808080;}</style>
<g transform="translate(0,2)">
<path class="eyeHide0" d="M49.2,34.2l14.3,14.3l0.1-0.7c0-7.5-6.1-13.6-13.6-13.6L49.2,34.2z"/>
<path class="eyeHide0" d="M50,25c12.5,0,22.7,10.2,22.7,22.7c0,2.9-0.6,5.7-1.6,8.3l13.3,13.3c6.9-5.7,12.3-13.1,15.6-21.6
c-7.9-19.9-27.3-34.1-50-34.1c-6.4,0-12.5,1.1-18.1,3.2l9.8,9.8C44.3,25.6,47.1,25,50,25z"/>
<path class="eyeHide0" d="M4.5,12.6L14.9,23l2.1,2.1C9.5,30.9,3.5,38.7,0,47.7c7.9,19.9,27.3,34.1,50,34.1c7,0,13.8-1.4,19.9-3.8
l1.9,1.9l13.2,13.3l5.8-5.8L10.3,6.8L4.5,12.6z M29.7,37.7l7,7c-0.2,1-0.3,2-0.3,3c0,7.5,6.1,13.6,13.6,13.6c1,0,2-0.1,3-0.3l7,7
c-3,1.5-6.4,2.4-10,2.4c-12.5,0-22.7-10.2-22.7-22.7C27.3,44.1,28.2,40.8,29.7,37.7z"/>
</g>
</svg>
