<!--
- Copyright (c) 2021-2023 Contributors to the Eclipse Foundation
-
- See the NOTICE file(s) distributed with this work for additional
- information regarding copyright ownership.
-
- This program and the accompanying materials are made available under the
- terms of the Apache License, Version 2.0 which is available at
- https://www.apache.org/licenses/LICENSE-2.0.
-
- Unless required by applicable law or agreed to in writing, software
- distributed under the License is distributed on an "AS IS" BASIS, WITHOUT
- WARRANTIES OR CONDITIONS OF ANY KIND, either express or implied. See the
- License for the specific language governing permissions and limitations
- under the License.
-
- SPDX-License-Identifier: Apache-2.0
-->

<svg xmlns="http://www.w3.org/2000/svg" width="30.072" height="34.215" viewBox="0 0 30.072 34.215">
    <defs>
        <style>
            .cls-1-user{fill:#fff}
        </style>
    </defs>
    <g id="user_10_">
        <g id="Group_24105" transform="translate(6.014)">
            <g id="Group_24104">
                <path id="Path_14951" d="M130.022 0a9.021 9.021 0 1 0 9.022 9.021A9.032 9.032 0 0 0 130.022 0zm0 16.038a7.017 7.017 0 1 1 7.017-7.017 7.025 7.025 0 0 1-7.017 7.017z" class="cls-1-user" transform="translate(-121)"/>
            </g>
        </g>
        <g id="Group_24107" transform="translate(0 20.115)">
            <g id="Group_24106">
                <path id="Path_14952" d="M48.831 301H43.24A14.49 14.49 0 0 0 31 307.713v7.387h30.072v-7.387A14.493 14.493 0 0 0 48.831 301zm10.236 12.1H33v-4.769A12.477 12.477 0 0 1 43.24 303h5.591a12.477 12.477 0 0 1 10.236 5.322z" class="cls-1-user" transform="translate(-31 -301)"/>
            </g>
        </g>
    </g>
</svg>
